M48
;Layer_Color=9474304
;FILE_FORMAT=4:4
METRIC,LZ
;TYPE=PLATED
T1F00S00C0.3300
T2F00S00C0.4000
T3F00S00C1.1000
T4F00S00C1.3000
T5F00S00C5.6000
%
T01
X002465Y00242
Y00254
X002585
Y00242
X00384Y00352
X00396
Y00364
X00384
T02
X007611Y0001287
X007841
X008071
X008301
X008531
X008761
X008991
X009221
X00926Y00114
X00882
X00838
X00794
X009796Y0008187
X0075Y00114
X00706
X00662
X00618
X006231Y0001287
X006461
X006691
X006921
X007151
X007381
X006001
X005771
X005541
X005311
X005081
X004851
X004621
X004391
X004161
X003931
X003701
X004161Y0010487
X004391
X004621
X004851
X005081
X0034Y00115
X00335Y00094
X003126Y0008187
X002896
X00276Y00088
X002436Y0008187
X002321Y0010487
X00296Y00116
X003011Y0001287
X003241
X003471
X002781
X002551
X002321
X002091
X001861
X001631
X001401
X001171
X000941
X000711
X000826Y0003587
X001056
X001286
X00181Y0005
X000711Y0005887
X000596Y0008187
X000366
X000481Y0010487
X000711
X000251
X000366Y0012787
X000596
X000826
X001056
X001516
X001746
X00217Y00129
X00215Y0015
X002321Y0015087
X00249Y00149
X002781Y0015087
X00273Y00173
X002896Y0017387
X00293Y00206
X00269Y00214
X00253Y00211
X00236Y00199
X0023Y0023
X00218Y00246
X00234Y00273
X00241Y00315
X001976Y0031187
X002Y00326
X00168Y00318
X00155Y00371
X001631Y0038087
X001861
X002091
X002321
X002781
X00305057Y00394057
X00305Y00411
X00312Y00421
X00334Y00408
X003586Y0040387
X003241Y0038087
X00339Y00359
X00289Y00308
X00303Y00241
X00325Y00238
X003241Y0019687
X00328Y00168
X003356Y0017387
Y0012787
X002896
X00251Y00119
X002206Y0017387
X001976
X00196Y00161
X00186Y00188
X00187Y00212
X0027Y00234
X000596Y0026587
X000366
X000251Y0028887
X000366Y0031187
X000481Y0033487
X000251
X000366Y0035787
X000596
X000711Y0038087
X000941
X001056Y0040387
X000826
X000941Y0042687
X000711
X00145Y0042
X001516Y0040387
X00135Y00371
X001171Y0033487
X000941
X000251Y0024287
X000366Y0021987
X000481Y0019687
X000251
X000366Y0017387
X000596
X000711Y0015087
X000481
X000251
X004391
X00413Y00188
X004046Y0021987
X00394Y0024
X00391Y00254
X00399
X00399999Y00274
X00415Y00274
X00426Y00304
X004046Y0031187
X0037Y00341
X00459Y00357
Y00367
X00452Y00408
X004276Y0040387
X00416Y00408
X00469Y003
X004621Y0028887
X004506Y0026587
X004621Y0024287
X004391
X00465Y00201
X00557Y00216
X00573Y00168
X005875Y00177
X00605Y00193
X00596Y00129
X00618Y00121
X00662
X00706
X0075
X00751Y00223
X007496Y0026587
X007381Y0028887
X00728Y00297
X007496Y0031187
X00694Y00367
X006921Y0038087
X00688Y00391
X006806Y0040387
X006576
X00647Y00399
X006346Y0035787
X006116
X005886
X005656
X005426
X00555Y0033
X00571Y00304
X00537
X005311Y0028887
X005081
X005Y00304
X005196Y0031187
X00648Y0028
X00657Y00269
X00629Y00257
X007036Y0021987
X00694Y00416
X0071Y00422
X00745Y00425
X00563Y00154
X005656Y0012787
X00794Y00121
X00838
X00882
X00926
X009221Y0024287
X009451
X00958Y00236
X009336Y0026587
X009106
X009Y00272
X008991Y0028887
X009221
X009451
X009336Y0031187
X009106
X008876
X008646
X00839Y00311
X00837Y0029
X008531Y0028887
X008761
X00812Y0029
X007841Y0028887
X00788Y00311
X007956Y0026587
X00772Y00261
X00828Y00255
X007956Y0021987
X008991Y0024287
Y0033487
X009221
X00904Y00356
X009221Y0038087
X009106Y0040387
X009221Y0042687
X008991
X008761
X008531
X008301
X008071
X007841
X00771Y0044
X0076Y00435
X00766Y00363
X00823Y00375
X00858Y00387
X00876
X0084Y00345
X00955
X009566Y0035787
X009796
T03
X000773Y001992
Y002246
Y0025
Y002754
X001027
Y0025
Y002246
Y001992
Y003008
X000773
X007119Y003793
Y004047
X007373
Y003793
X007627
X007881
Y004047
X007627
T04
X00789Y0006
X00824
X00859
X00894
X00754
X00719
X00684
X00649
X00597
X00562
X00527
X00492
X00457
X00422
X0037
X00335
X003
X00248
X00213
T05
X0096Y0004
X0004
Y0041
X0096
M30
